<svg width="638" height="234" viewBox="0 0 638 234" xmlns="http://www.w3.org/2000/svg"><desc>  Created with Sketch.</desc><g style="fill:none;stroke-width:1;stroke:none"><path d="M95.7 51.6C102.5 49.3 109.8 48.1 117.4 48.1 150.6 48.1 178.3 71.7 184.6 103L231.6 93.4C220.8 40.2 173.8 0.1 117.4 0.1 104.5 0.1 92.1 2.2 80.5 6.1L95.7 51.6Z" fill="#FFF100"/><path d="M40.2 204L72 168C57.8 155.4 48.9 137.1 48.9 116.6 48.9 96.2 57.8 77.8 72 65.3L40.2 29.4C16.1 50.8 0.9 81.9 0.9 116.7 0.9 151.4 16.1 182.6 40.2 204Z" fill="#00A3DF"/><path d="M184.6 130.4C178.2 161.7 150.6 185.2 117.4 185.2 109.8 185.2 102.5 184 95.6 181.7L80.4 227.2C92 231.1 104.5 233.2 117.4 233.2 173.8 233.2 220.8 193.2 231.6 140L184.6 130.4Z" fill="#EE4023"/><g fill="#000"><path d="M388.2 162.6C380.4 170.2 369.9 174.8 358.3 174.6 350.3 174.5 342.9 172.1 336.7 168.1L321.1 192.9C331.8 199.6 344.3 203.6 357.9 203.8 377.6 204.1 395.6 196.3 408.7 183.6L388.2 162.6ZM360 61.5C320.8 60.9 288.4 92.3 287.8 131.5 287.6 146.2 291.8 160 299.3 171.4L428.1 116.3C420.9 85.4 393.3 62.1 360 61.5ZM317.3 137.1C317.1 135.5 317 133.8 317 132.1 317.4 109 336.4 90.5 359.5 90.9 372.1 91.1 383.3 96.8 390.8 105.8L317.3 137.1ZM468.6 29.5L468.6 166.8 492.4 176.7 481.1 203.8 457.5 194C452.2 191.7 448.6 188.2 445.9 184.2 443.3 180.2 441.3 174.6 441.3 167.2L441.3 29.5 468.6 29.5Z"/><path d="M554.5 93C558.7 91.6 563.1 90.9 567.8 90.9 588.1 90.9 604.9 105.3 608.8 124.4L637.5 118.5C630.9 86 602.2 61.6 567.8 61.6 559.9 61.6 552.3 62.9 545.3 65.2L554.5 93ZM520.6 185.9L540 164C531.3 156.3 525.9 145.1 525.9 132.6 525.9 120.1 531.4 108.9 540 101.3L520.6 79.4C505.9 92.4 496.6 111.5 496.6 132.7 496.6 153.9 505.9 172.9 520.6 185.9ZM608.8 141.1C604.9 160.2 588 174.6 567.8 174.6 563.2 174.6 558.7 173.8 554.5 172.4L545.2 200.2C552.3 202.6 559.9 203.9 567.8 203.9 602.2 203.9 630.9 179.5 637.5 147L608.8 141.1Z"/></g></g></svg>