<svg width="780" height="501" viewBox="0 0 780 501" xmlns="http://www.w3.org/2000/svg"><style>.a{fill:rgb(179, 19, 27);}</style><title>  amex-outline</title><desc>  Created with Sketch.</desc><path d="M725 0H55C24.7 0 0 24.7 0 55v391c0 30.3 24.7 55 55 55h670c30.3 0 55-24.7 55-55V55C780 24.7 755.3 0 725 0z" fill="none"/><path d="M230.1 199.4L232.2 199.4 233.9 198.9 235.6 198.3 237 196.8 238.5 195.3 239.3 193.3 240.1 191.3 240.1 188.3 240.1 185.4 239.4 184.2 238.8 183.1 237.5 182.3 236.3 181.6 233.7 181.6 231.1 181.6 229.3 182.4 227.6 183.2 226.5 184.3 225.5 185.4 224.7 187.3 223.9 189.2 223.7 192.2 223.6 195.2 224.3 196.6 225.1 198.1 226.5 198.8 228 199.4 230.1 199.4Z" class="a"/><path d="M565.7 284.1L573.2 284.1 573.2 281.7 573.2 279.4 574.1 273.7C574.6 270.5 575.4 265.5 575.9 262.6 576.3 259.6 577 255.9 577.2 254.2 577.5 252.6 578.1 249.1 578.7 246.4 579.3 243.8 580 240.9 580.3 240 580.6 239.2 580.8 238.3 580.9 238 580.9 237.8 581.5 236.2 582.3 234.6L583.7 231.5 585.6 229 587.5 226.5 589.5 225C590.7 224.1 592.5 223 593.6 222.5L595.6 221.5 599.9 221.5 604.3 221.5 606 222.1 607.7 222.6 608 222.5 608.3 222.3 608.3 221.2C608.3 220.6 608.6 218.3 609.1 216.1L609.9 212.2 609 211.9C608.5 211.7 607.3 211.3 606.3 211L604.6 210.4 601.5 210.4 598.4 210.4 595.8 211.3 593.3 212.2 591.4 213.4 589.5 214.5 587 217.1 584.5 219.7 583.2 221.7C582.4 222.9 581.8 223.7 581.7 223.7 581.7 223.6 582.1 221.3 582.6 218.5 583.2 215.7 583.6 213.1 583.6 212.7L583.6 211.9 577.2 211.9 570.8 211.9 570.8 212.1C570.8 212.3 570.5 214.5 570.1 217.1 569.7 219.7 568.9 224.7 568.3 228.2 567.8 231.8 566.8 237.4 566.3 240.9 565.7 244.3 564.8 249.2 564.4 251.8 563.9 254.4 563 258.9 562.5 261.9 561.9 264.8 561 269.6 560.4 272.4 559.8 275.3 559.1 279.1 558.7 280.9L558.1 284.1 565.7 284.1Z" class="a"/><path d="M389.9 284.1L397.3 284.1 397.5 280.9C397.6 279.2 398.1 275.7 398.5 273.2 398.8 270.7 399.6 265.7 400.2 262 400.8 258.4 401.9 252.4 402.6 248.6 403.4 244.9 404.2 241.2 404.5 240.4 404.8 239.5 405 238.7 405 238.4 405 238.2 405.6 236.7 406.3 235.2 407 233.8 408.2 231.5 409.1 230.2L410.7 227.9 412.8 225.9 414.9 224 417.5 222.7 420.1 221.5 424.1 221.5 428.1 221.5 430.1 222.1C431.1 222.4 432.1 222.7 432.2 222.7 432.3 222.7 432.4 222.3 432.4 221.9 432.4 221.4 432.8 219.1 433.3 216.8 433.8 214.4 434.2 212.4 434.2 212.3 434.2 212.2 433 211.7 431.7 211.3 430.3 210.9 428.4 210.5 427.4 210.3L425.7 210.1 423.4 210.5C422.2 210.7 420.3 211.2 419.3 211.6 418.3 212 416.6 212.8 415.6 213.5 414.6 214.1 413 215.4 412 216.3 411.1 217.2 409.5 219.1 408.6 220.4 407.6 221.8 406.6 223.2 406.3 223.5L405.8 224.2 406.1 222.9C406.3 222.1 406.7 219.6 407.1 217.3 407.5 215 407.9 212.9 408 212.5L408.2 211.9 401.6 211.9 395 211.9 395 212.8C395 213.2 394.6 216 394.1 218.9 393.6 221.8 392.8 226.7 392.4 229.8 391.9 232.8 391 238.1 390.5 241.6 389.9 245 389 249.9 388.5 252.5 388.1 255.1 387.2 259.6 386.6 262.6 386.1 265.5 385.1 270.4 384.5 273.3 384 276.3 383.3 279.8 383 281.1 382.7 282.4 382.5 283.6 382.5 283.8L382.5 284.1 389.9 284.1Z" class="a"/><path d="M215.4 284.1L222.9 284.1 223.1 283.5C223.2 283.2 223.3 282.4 223.3 281.8 223.3 281.1 223.8 277.6 224.4 274.1 224.9 270.5 225.9 264.7 226.5 261.2 227.1 257.6 227.9 252.5 228.4 249.7 228.9 247 229.7 242.4 230.2 239.5 230.8 236.6 231.6 232.2 232.1 229.6 232.6 227 233.6 222.1 234.2 218.7 234.9 215.3 235.6 212.4 235.7 212.2L235.9 211.9 228.3 212 220.8 212.1 220.1 216.6C219.8 219.1 219 224 218.5 227.5 217.9 231.1 217 236.4 216.5 239.5 216 242.5 215.2 247.5 214.6 250.4 214.1 253.4 213.2 257.9 212.7 260.5 212.2 263.1 211.4 267.6 210.8 270.5 210.2 273.5 209.4 277.4 209.1 279.2 208.7 281 208.3 282.8 208.2 283.3L208 284.1 215.4 284.1Z" class="a"/><path d="M122.2 284.1L130.6 284.1 131.2 280.3C131.5 278.3 132.2 274.3 132.6 271.6 133.1 268.8 134 263.7 134.5 260.1 135.1 256.6 136 251.4 136.5 248.5 137 245.7 137.8 241.2 138.2 238.7 138.7 236.1 139.2 233.9 139.3 233.8L139.5 233.6 162.1 233.6 184.8 233.6 185 233.9 185.3 234.1 184.9 236.1C184.7 237.2 184 240.6 183.5 243.7 182.9 246.7 181.9 251.9 181.3 255.1 180.8 258.3 179.9 262.9 179.4 265.3 179 267.7 178 272.7 177.4 276.4 176.7 280.1 176.2 283.4 176.2 283.6L176.2 284.1 184.6 284.1 193.1 284.1 193.5 281.9C193.7 280.7 194 278.6 194.2 277.1 194.4 275.7 194.9 272.6 195.3 270.4 195.6 268.1 196.4 263.5 197 260.3 197.5 257.1 198.5 251.5 199.1 248 199.6 244.5 200.5 239.3 201 236.5 201.5 233.8 202.3 229.1 202.9 226.1 203.4 223.2 204.3 218.2 204.9 215 205.5 211.9 206.4 207.1 206.9 204.5 207.3 201.8 208.2 197 208.8 193.7 209.4 190.5 210.1 186.7 210.5 185.3L211.1 182.8 202.5 182.8 193.9 182.8 193.7 184.4C193.6 185.3 193.1 187.9 192.8 190.1 192.4 192.3 191.7 196.2 191.2 198.7 190.8 201.3 189.9 206.2 189.4 209.7 188.8 213.1 188.1 217.6 187.8 219.8L187.2 223.6 174.6 223.9 162 224.1 151.5 223.9C145.7 223.8 140.9 223.6 140.9 223.6 140.8 223.5 141 222.2 141.3 220.6 141.6 219 142.1 216.2 142.5 214.4 142.9 212.5 143.6 209 144.1 206.4 144.5 203.8 145.1 200.6 145.3 199.3 145.5 197.9 145.9 195.7 146.1 194.3 146.4 192.9 147 190 147.4 187.9 147.8 185.7 148.2 183.6 148.3 183.3L148.5 182.8 140 182.8 131.5 182.8 130.9 185.8C130.6 187.5 130.3 189.9 130.1 191.1 129.9 192.4 129.2 196.3 128.7 200 128.1 203.6 127.2 209 126.7 211.9 126.3 214.9 125.4 220.3 124.8 223.9 124.3 227.5 123.3 233.1 122.7 236.4 122.1 239.6 121.3 244.2 120.8 246.6 120.4 249 119.5 253.5 118.9 256.7 118.3 259.8 117.4 264.3 117 266.5 116.5 268.8 116 271.5 115.8 272.4 115.7 273.4 115.1 276.1 114.6 278.6 114.1 281 113.7 283.2 113.7 283.5L113.7 284.1 122.2 284.1Z" class="a"/><path d="M626.6 285.7L629.9 285.8 633 285.3C634.8 285 637 284.6 637.9 284.3 638.9 284 640.6 283.3 641.7 282.7L643.8 281.7 645.6 280.1 647.4 278.5 649.3 276C650.3 274.6 651.2 273.2 651.4 273L651.6 272.4 651.4 274.2C651.3 275.1 651.1 276.7 650.9 277.6 650.7 278.6 650.5 280.4 650.4 281.7L650.1 284.1 663.7 284.1 663.7 279.4 664.8 270.5C665.3 265.7 666.2 259.2 666.6 256.1 667.1 253.1 667.8 248.7 668.2 246.4 668.6 244.1 669.4 240 669.8 237.2 670.3 234.5 671.2 229.6 671.7 226.5 672.3 223.3 673.2 218.4 673.8 215.4 674.3 212.4 675.2 207.8 675.7 205.2 676.2 202.5 677.1 197.8 677.6 194.8 678.2 191.7 679.1 187.4 679.5 185.2 680 183 680.4 181.1 680.4 181L680.4 180.7 665.5 180.7 665.3 182.9C665.2 184.1 664.6 188 664.1 191.6 663.5 195.3 662.6 201 662 204.5 661.4 207.9 660.9 211.2 660.8 211.9L660.6 213 660 212.8C659.7 212.6 657.9 212.2 656.1 211.7L652.8 210.9 648.3 210.5 643.8 210.2 640 210.5 636.2 210.9 632.7 211.8 629.2 212.6 625.9 214.2 622.6 215.8 620.2 217.6 617.8 219.4 615.7 221.7C614.5 222.9 612.9 225 612 226.2L610.4 228.5 608.5 232.5C607.5 234.6 606.2 237.5 605.7 238.8 605.2 240.1 604.3 243.1 603.7 245.4L602.7 249.5 602.1 254.9 601.6 260.3 602 264.6 602.4 269 602.9 270.5C603.1 271.4 603.7 272.9 604.1 273.9L604.8 275.8 606.1 277.6 607.5 279.4 609 280.6 610.5 281.9 612.6 282.9C613.7 283.5 615.7 284.2 616.9 284.5 618.1 284.9 620 285.3 621.2 285.4 622.4 285.6 624.8 285.7 626.6 285.7ZM632.5 275.9L629.9 276 628.2 275.7C627.2 275.6 625.6 275.1 624.7 274.7L623 274 621.6 272.8 620.2 271.6 618.1 267.6 617.6 265.3 617.1 263.1 617.1 258.6 617.2 254.1 617.7 250.1 618.3 246.1 619.2 243.3C619.6 241.8 620 240.3 620 240.1 620 239.9 620.5 238.6 621.1 237.3 621.7 236 622.6 234.1 623.2 232.9 623.8 231.8 624.9 230 625.7 228.9 626.5 227.9 627.8 226.3 628.7 225.5 629.6 224.6 631.1 223.5 631.9 222.9L633.5 222 636.2 221 638.9 220.1 644.7 220.1 650.4 220.1 653.7 221C655.5 221.5 657.4 222.1 658 222.3L658.9 222.7 658.7 223.6C658.6 224.2 658.2 226.5 657.8 228.7 657.4 231 656.6 235.4 656.1 238.5 655.5 241.5 654.7 246.1 654.2 248.7 653.7 251.3 653 254.5 652.6 256 652.2 257.4 651.7 259.4 651.4 260.4 651.1 261.4 650.5 263.1 649.9 264.2 649.4 265.3 648.5 266.9 647.9 267.8 647.3 268.6 646.3 269.8 645.7 270.4 645 271 643.6 272.1 642.6 272.7L640.7 274 635.2 275.8Z" class="a"/><path d="M509.4 285.6L514.1 285.5 517 284.7 520 284 521.9 283.1C523 282.6 524.7 281.6 525.7 280.9 526.8 280.2 528.4 278.9 529.3 277.9 530.3 277 531.6 275.4 532.4 274.4 533.2 273.4 533.8 272.6 533.9 272.7 534 272.8 533.8 274.4 533.5 276.3 533.2 278.2 533 280.7 533 281.9L533 284.1 545.7 284.1 545.9 279.1 546.1 274.2 547 267.8C547.5 264.2 548.3 259 548.8 256.1 549.3 253.3 550.2 248.4 550.7 245.4 551.2 242.3 552.1 237.6 552.6 234.8L553.6 229.8 553.6 225.4 553.6 221.1 552.6 219.1 551.7 217.1 550.3 215.8 549 214.5 546.8 213.4 544.6 212.3 538.1 210.9 533.6 210.5 529.1 210.2 523.3 210.5C520.2 210.7 515.7 211.1 513.4 211.4L509.2 211.9 503.6 211.9 503.2 213.9C502.9 215 502.3 217.6 501.8 219.7 501.2 221.8 500.8 223.6 500.9 223.6 500.9 223.7 502.5 223.3 504.3 222.9 506 222.4 509.9 221.6 512.7 221.1L517.9 220.2 522.6 220 527.3 219.8 533.3 220.9 535.3 221.9 537.3 222.9 538.5 224.5 539.6 226.2 539.6 228.9 539.6 231.5 539 234.4 538.4 237.3 525.9 237.4 513.4 237.4 509.3 238.5C507.1 239.2 504.6 240 503.8 240.4 503 240.7 502.2 241.1 502 241.1 501.9 241.1 500.5 241.8 499.1 242.7L496.4 244.3 494.3 246.4C493.2 247.6 491.7 249.3 491.1 250.2 490.4 251.2 489.4 253.2 488.7 254.7L487.6 257.4 487.1 260.4 486.5 263.4 486.5 269.8 487 272.4 487.5 275.1 488.5 276.8C489 277.7 490 279.1 490.6 279.9L491.8 281.2 493.8 282.5 495.9 283.8 498.3 284.4C499.6 284.8 501.6 285.3 502.7 285.4L504.7 285.8 509.4 285.6ZM513.8 275.9L511 276.1 509.1 275.6C508.1 275.3 506.6 274.8 505.7 274.3L504.2 273.5 503.3 272.5C502.8 271.9 502.1 270.8 501.7 270.1L501 268.6 500.8 265.3 500.7 262 501.3 259.9C501.6 258.8 502.3 256.9 502.9 255.6L504 253.4 506.1 251.3 508.2 249.2 510.5 248.1 512.7 247.1 515.5 246.4 518.3 245.7 535.6 245.7 536.2 246 536.7 246.2 536.2 248.9C536 250.4 535.4 253.1 534.9 254.9 534.4 256.7 533.5 259.4 533 260.8 532.4 262.3 532 263.6 532 263.7 532 263.8 531.4 264.9 530.7 266L529.4 268.1 527.3 270.2C526.2 271.3 525.1 272.3 525 272.3 524.8 272.3 524.1 272.7 523.4 273.1L522.2 274 519.3 274.9 516.5 275.8Z" class="a"/><path d="M452.4 285.7L456.2 285.8 460.5 285.3C462.9 285 466.1 284.5 467.6 284.2 469.1 283.9 471.5 283.4 472.9 283 474.4 282.5 475.7 282.1 475.9 282 476 281.8 476.5 280.3 476.8 278.5 477.2 276.7 477.6 274.3 477.8 273.1 478 272 478.1 271 478 270.9 477.9 270.8 477.7 270.9 477.4 271.1 477.2 271.3 475.5 272 473.7 272.7L470.3 274 465.6 274.9 460.8 275.8 456.8 275.7 452.7 275.5 450.4 274.7 448.1 273.9 446.4 272.4 444.6 270.8 443.4 268.7 442.2 266.5 441.7 263.7 441.1 260.8 441.1 257.1 441.1 253.4 441.8 248.9 442.5 244.4 443.2 241.9C443.6 240.6 444 239 444.2 238.5 444.3 237.9 445 236.2 445.6 234.8 446.2 233.4 447.3 231.2 448.1 229.9L449.4 227.6 451.1 225.9 452.7 224.2 454.5 223.1 456.2 222 458.5 221.3C459.7 220.9 461.9 220.4 463.3 220.2L465.9 219.8 469.7 220 473.5 220.2 478 221.1 482.5 222 484.4 222.7C485.4 223.1 486.3 223.4 486.3 223.4 486.4 223.4 486.6 222.1 486.8 220.5 487.1 218.9 487.5 216.3 487.8 214.8 488.1 213.2 488.3 211.8 488.2 211.7 488.1 211.6 486.7 211.4 485.2 211.2 483.6 211.1 479.3 210.7 475.7 210.5L469 210.1 464.3 210.5 459.7 210.9 456.2 211.6 452.7 212.3 450.5 213.2C449.3 213.7 447.5 214.6 446.5 215.2 445.5 215.8 444.3 216.6 443.7 217 443.2 217.3 441.6 218.8 440.1 220.3L437.5 222.9 436 225C435.2 226.2 433.7 228.7 432.8 230.6L431.2 233.9 429.9 237.6C429.2 239.6 428.2 242.9 427.8 244.9L426.9 248.5 426.5 251.8 426.2 255.1 426.2 259.4 426.2 263.8 426.5 266.3 426.9 268.8 427.9 271.4 428.9 274 430.2 275.9 431.3 277.8 433.3 279.6 435.2 281.5 437.2 282.6 439.2 283.6 441.9 284.4C443.3 284.8 445.4 285.2 446.5 285.4 447.7 285.6 450.3 285.7 452.4 285.7Z" class="a"/><path d="M342.1 285.7L345.9 285.8 349.7 285.4C351.8 285.3 355.3 284.9 357.4 284.6 359.5 284.3 363.1 283.6 365.4 283.1L369.6 282.2 369.9 280.6C370 279.7 370.5 277.2 370.9 274.9L371.8 270.8 371.6 270.6 371.4 270.4 370.1 271C369.4 271.4 367.2 272.2 365.2 272.9L361.5 274.1 357.7 274.8 353.9 275.5 347.8 275.6 341.7 275.6 339.7 274.9C338.5 274.5 336.8 273.9 335.9 273.4L334.3 272.6 331.5 270.1 330.5 268.2 329.4 266.4 328.7 264 328 261.7 328 257.4 328 253 328.6 249.2 329.2 245.3 339.7 244.8 359 244.9 378.2 245 378.8 242.6C379.2 241.2 379.6 238.4 379.9 236.3L380.4 232.6 380.4 229.4 380.4 226.2 379.9 223.8 379.3 221.5 378.4 219.9C377.9 219 377.1 217.8 376.5 217.1 375.9 216.5 374.9 215.5 374.2 215 373.5 214.6 372.2 213.8 371.2 213.3L369.5 212.3 366.5 211.6 363.4 210.9 359.7 210.5 356 210.2 352.5 210.4 349 210.6 344.9 211.4 340.7 212.2 338.1 213.2C336.7 213.8 334.5 214.9 333.3 215.6 332 216.3 330.3 217.4 329.4 218.1 328.6 218.8 327.1 220.2 326.1 221.1 325.2 222.1 323.8 223.8 323 224.9 322.2 226.1 321 228.1 320.3 229.4 319.7 230.8 318.8 232.6 318.4 233.6 318 234.6 317.3 236.5 316.8 237.9 316.3 239.4 315.5 242.1 315.1 244 314.6 245.9 314 249.1 313.7 251L313.1 254.5 313.1 259.7 313.1 264.8 313.7 267.1C314 268.3 314.5 270.2 314.9 271.2 315.3 272.3 316 273.8 316.5 274.7 317 275.6 318 276.9 318.8 277.8 319.6 278.6 321 279.9 322 280.6 322.9 281.3 324.6 282.3 325.8 282.8L327.8 283.7 330.6 284.4C332.2 284.8 334.6 285.2 335.9 285.4 337.2 285.6 340 285.7 342.1 285.7ZM348.6 236.9C339 236.9 331.2 236.8 331.2 236.7 331.2 236.7 331.6 235.4 332.1 234.1 332.6 232.7 333.5 230.6 334 229.4L335.1 227.4 337.4 225.1 339.7 222.8 341.9 221.7C343.2 221.1 344.8 220.5 345.6 220.3 346.3 220.1 348.5 219.8 350.4 219.7L353.9 219.5 356.5 219.8 359.2 220.2 361.1 221.1 363.1 221.9 364.1 223.1C364.7 223.7 365.4 224.6 365.7 225.2L366.2 226.1 366.5 228.1 366.8 230.1 366.4 233.5 366.1 236.9Z" class="a"/><path d="M245.4 316.3L245.6 315.8C245.8 315.5 245.9 314.7 245.9 314.2 245.9 313.6 246.1 311.6 246.4 309.6 246.7 307.7 247.4 303.2 248 299.7 248.5 296.1 249.4 290.8 249.8 287.9 250.3 284.9 250.9 281.1 251.1 279.5 251.3 277.8 251.6 276.4 251.7 276.4 251.8 276.4 252.3 277.2 252.8 278.1L253.7 279.7 255.6 281.6 257.5 283.6 259.9 284.5 262.2 285.5 265.1 285.8 267.9 286.2 271.5 286 275 285.8 278.9 284.8 282.8 283.8 284.9 282.8C286 282.3 288 281.1 289.4 280.3L291.8 278.7 294.1 276.4C295.3 275.2 297.1 273.2 298 272 298.9 270.8 299.6 269.7 299.6 269.6 299.6 269.5 300.1 268.8 300.6 268 301.1 267.2 302.2 265 303.1 263.1 303.9 261.2 305.1 257.7 305.9 255.4L307.2 251.3 307.9 247.7C308.3 245.7 308.8 242.4 309 240.4L309.4 236.7 309.2 233.6 308.9 230.5 308.2 227.4 307.5 224.2 306.3 221.9 305.2 219.6 302.9 217.2 300.6 214.8 295.3 212 292.3 211.3 289.4 210.6 286.4 210.4 283.5 210.2 280.2 210.5 276.9 210.9 274.2 211.6 271.6 212.3 269.2 213.4C268 213.9 266.1 215 265.1 215.6 264.1 216.2 263.1 217 262.8 217.2 262.5 217.5 261.9 218 261.4 218.3L260.5 218.9 261.1 215.8C261.5 214.2 261.8 212.6 261.8 212.4L261.8 211.9 249.1 211.9 248 218.9C247.4 222.8 246.4 228.8 245.8 232.2 245.3 235.6 244.4 240.8 243.9 243.7 243.4 246.5 242.6 251.6 242 254.9 241.4 258.3 240.5 263.6 239.9 266.7 239.4 269.9 238.5 274.5 238 276.9 237.6 279.4 236.7 284.1 236.1 287.4 235.5 290.6 234.6 295.7 234 298.8 233.4 301.8 232.5 306.7 231.9 309.5 231.4 312.4 230.8 315.1 230.7 315.5L230.5 316.3ZM267.2 276.4L265.3 276.1 263.4 275.7 261.5 274.8 259.6 274 258.2 272.7 256.9 271.4 256.1 269.7C255.7 268.7 255.1 267.1 254.9 266.1L254.4 264.2 254.6 261.2 254.8 258.2 255.7 253.5C256.2 251 257.1 246.1 257.6 242.8 258.2 239.5 259.1 234.6 259.6 231.9L260.5 227.1 262.5 225.5C263.6 224.6 265.3 223.3 266.4 222.8L268.2 221.7 270.7 221 273.1 220.2 279.3 219.8 281.9 220.4 284.4 220.9 286.2 221.7 288 222.6 289.5 224.1 291 225.6 291.8 227.2C292.3 228.1 292.9 229.8 293.2 231L293.8 233.3 293.6 239.8 293.4 246.4 292.5 250.3C292.1 252.5 291.1 255.7 290.5 257.6L289.3 261 287.8 263.7C287 265.2 285.8 267.3 285.1 268.3 284.4 269.3 283.3 270.5 282.6 271.1 282 271.7 280.8 272.6 280.1 273.1L278.9 274 273 276Z" class="a"/></svg>