<svg xmlns="http://www.w3.org/2000/svg" viewBox="0 0 1000 1000"><path d="M416 711.8c2.2 7.2 4.3 14.1 6.4 21.1h-13.2c2.2-7.1 4.5-14 6.8-21.1zm574-504.1v584.6c0 13.9-11.3 25.2-25.2 25.2H35.2c-14 0-25.2-11.3-25.2-25.2V207.7c0-13.9 11.3-25.2 25.2-25.2h929.5c14-.1 25.3 11.2 25.3 25.2zm-709.9 50h187L704 267l14.1-24.2-274.6 9.2H280.1v5.7zm78.2 488.5h-23.1v-48.6h-14.8v58.5h35.3c.5-3.3 2.1-6.5 2.6-9.9zm87 10.3c-.1-.5-.2-.9-.3-1.2-6.2-18.7-12.5-38.1-18.7-56.7-.4-1.1-.9-1.2-1.9-1.2-4.6 0-14.3.1-18.9 0-1.6 0 2.5 2.2 2 3.7-5.6 16-10.9 30.1-16.5 46.1-1 2.9-2 6.1-3.1 9.1l13 .3.7-1.2c1.3-4 2.6-7.9 4-11.8.2-.5.3-1.2.7-1.2 6-.1 12.6-.1 18.7-.1.3.7.5 1.4.7 2 1.1 3.7 2.2 7.3 3.2 10.9l.5 1.3h15.9zm59.3-33.1c-3.1-1.5-6.3-2.9-9.4-4.4-1.5-.8-3.1-1.6-4.5-2.6-2-1.5-2.5-3.6-1.9-6 .6-2.3 2.2-3.6 4.4-3.8 1.9-.2 3.8-.3 5.7-.1 3.3.3 6.5.9 9.9 1.5.7-3.1 1.5-6.2 2.4-9.8-3.7-.6-7.2-1.4-10.7-1.8-5.4-.6-10.8-.2-16 1.8-13 5.2-13.7 22.5-5.3 28.9 2.3 1.8 5 3.1 7.6 4.5 2.6 1.4 5.4 2.4 7.9 3.9 3 1.8 3.8 4 3.1 7.2-.6 2.5-2.6 4.1-5.9 4.2-3.3.1-6.6-.1-9.8-.6-2.7-.4-5.3-1.4-8.1-2.1-.9 3.2-1.8 6.4-2.8 9.7 6.3 2.3 12.6 3.6 19.1 3.4 5.3-.1 10.4-1.2 15.1-4 9.1-5.4 12.3-23.7-.8-29.9zm86.4 22.8h-24.7v-15.4h20.2v-9.7h-20.1v-13.9h21.2c.5-3.3 1-6.5 1.4-9.7h-37.6V756h38.1c.5-3.3.9-6.5 1.5-9.8zm86.8 10.5L660.4 727c.3-.1.5-.2.8-.3.3-.1.5-.2.8-.3 4.6-1.7 8.1-4.6 9.3-9.5 1.8-7.2.3-14.5-7.6-17.5-1.8-.7-3.3-1.3-5.2-1.6-1.2-.2-3-.4-4.2-.5l-26.4.1v58.8h14.9V707c3.3-.4 6.6-.5 9.7.7 2.2.8 3.6 2.3 4 4.6 1 5.4-.5 10.2-7.5 10.8-1.3.1-4.3.1-5.6.1l18.9 33.4 15.5.1zm42.1-106.2H492.6l5.4-9.3-19.2 9.3H280.1v5.7h196.7l7.1 9.3 5.4-9.3H720v-5.7zm0-28.4H508.7l4.8-8.3-21.5 8.3H280.1v5.7h206.8l12.5 10.2 5.9-10.2h214.6v-5.7zm0-28.5H523.7l5.4-9.3-36.5 9.3H280.1v5.7h212.2l22.7 9.3 5.4-9.3h199.5v-5.7zm0-28.5H539.2l5.4-9.3-49.1 9.3H280.1v5.7h216.5l34 9.3 5.4-9.3h184l-.1-5.7zm0-28.4H554.8l5.4-9.3-69.5 9.3H280.1v5.7h213.7l52.3 9.3 5.4-9.3h168.4v-5.7zm0-28.5H570.4l5.4-9.2-89.7 9.2h-206v5.7h211l70.6 9.3 5.4-9.3H720l-.1-5.7zm0-28.5h-134l5.4-9.3-110.1 9.3H280.1v5.7h208.3l88.9 9.3 5.4-9.3H720v-5.7zm0-28.4H601.5l5.4-9.3-130.5 9.3H280.1v5.7h205.5l107.2 9.3 5.4-9.3h121.7v-5.7zm0-28.5H617.1l5.4-9.3-150.8 9.3H280.1v5.7h202.8l125.5 9.2 5.4-9.2H720l-.1-5.7zm0-28.5h-86.6l4.7-8.1-149.2 8.1H280.1v5.7h181.6L624 410.5l6-10.5h89.9v-5.7zm0-28.4h-69.5l5.4-9.2-193.3 9.2H280.1v5.7H478l163.7 9.3 5.4-9.3h72.8v-5.7zm0-28.5H666l5.4-9.3-213.6 9.3H280.1v5.7h195.2l182 9.2 5.4-9.2h57.2v-5.7zm0-28.5h-38.4l5.4-9.3-233.9 9.3H280.1v5.7h192.4l200.3 9.2 5.4-9.2h41.7v-5.7zm0-28.5h-22.8l5.4-9.2-254.3 9.2H280.1v5.7h189.7l218.6 9.3 5.4-9.3h26.1v-5.7z"/></svg>