<svg xmlns="http://www.w3.org/2000/svg" width="750" height="471" viewBox="0 0 750 471"><style>.a{fill:#ffffff;}</style><title>  Slice 1</title><desc>  Created with Sketch.</desc><path d="M278.2 334.2l33.4-195.8h53.4l-33.4 195.8H278.2L278.2 334.2z" class="a"/><path d="M524.3 142.7c-10.6-4-27.1-8.2-47.8-8.2 -52.7 0-89.9 26.6-90.2 64.6 -0.3 28.1 26.5 43.8 46.8 53.2 20.8 9.6 27.8 15.7 27.7 24.3 -0.1 13.1-16.6 19.1-31.9 19.1 -21.4 0-32.7-3-50.2-10.3l-6.9-3.1 -7.5 43.8c12.5 5.5 35.5 10.2 59.4 10.4 56.1 0 92.5-26.2 92.9-66.9 0.2-22.3-14-39.2-44.8-53.2 -18.6-9.1-30.1-15.1-30-24.3 0-8.1 9.7-16.8 30.6-16.8 17.4-0.3 30.1 3.5 39.9 7.5l4.8 2.3L524.3 142.7" class="a"/><path d="M661.6 138.5h-41.2c-12.8 0-22.3 3.5-27.9 16.2l-79.2 179.4h56c0 0 9.2-24.1 11.2-29.4 6.1 0 60.6 0.1 68.3 0.1 1.6 6.9 6.5 29.3 6.5 29.3h49.5L661.6 138.5 661.6 138.5zM596.2 264.9c4.4-11.3 21.3-54.7 21.3-54.7 -0.3 0.5 4.4-11.3 7.1-18.7l3.6 16.9c0 0 10.2 46.7 12.4 56.5h-44.3V264.9L596.2 264.9z" class="a"/><path d="M45.9 138.5L45.2 142.5C66.3 147.6 85.1 155 101.6 164.2L149 333.9 205.4 333.9 289.4 138.5 232.9 138.5 180.7 272 175.1 244.8C174.8 244 174.6 243.2 174.3 242.3L156.1 155C152.9 142.6 143.5 138.9 131.9 138.5L45.9 138.5z" fill="#ffffff"/></svg>
